<mxfile host="Electron" agent="Mozilla/5.0 (Windows NT 10.0; Win64; x64) AppleWebKit/537.36 (KHTML, like Gecko) draw.io/26.2.2 Chrome/134.0.6998.178 Electron/35.1.2 Safari/537.36" version="26.2.2">
  <diagram name="Page-1" id="icdh6pX9APepNNFhdhNa">
    <mxGraphModel dx="6960" dy="5662" grid="0" gridSize="10" guides="1" tooltips="1" connect="1" arrows="1" fold="1" page="1" pageScale="1" pageWidth="827" pageHeight="1169" math="0" shadow="0">
      <root>
        <mxCell id="0" />
        <mxCell id="1" parent="0" />
        <mxCell id="13" value="D1 Users" style="shape=mxgraph.dfd.dataStoreID;whiteSpace=wrap;html=1;fontSize=27;strokeWidth=2;dashed=0;align=left;spacingLeft=3;points=[[0,0],[0.5,0],[1,0],[0,0.5],[1,0.5],[0,1],[0.5,1],[1,1]];labelPadding=-90;direction=east;noLabel=0;overflow=visible;fillOpacity=100;portConstraint=east;metaEdit=0;" parent="1" vertex="1">
          <mxGeometry x="563.5662996724114" y="-645.3466666666668" width="277.1560319042871" height="82.27555555555554" as="geometry" />
        </mxCell>
        <mxCell id="14" value="D2 Departments" style="shape=mxgraph.dfd.dataStoreID;whiteSpace=wrap;html=1;fontSize=27;strokeWidth=2;dashed=0;align=left;spacingLeft=3;points=[[0,0],[0.5,0],[1,0],[0,0.5],[1,0.5],[0,1],[0.5,1],[1,1]];labelPadding=-90;direction=east;noLabel=0;overflow=visible;fillOpacity=100;portConstraint=east;metaEdit=0;" parent="1" vertex="1">
          <mxGeometry x="1335.0011152257512" y="1001.6266898550721" width="277.1560319042871" height="82.27555555555554" as="geometry" />
        </mxCell>
        <mxCell id="DdZt1cwlgyV9_247WWNm-154" style="edgeStyle=orthogonalEdgeStyle;rounded=0;orthogonalLoop=1;jettySize=auto;html=1;entryX=0;entryY=0.5;entryDx=0;entryDy=0;strokeWidth=3;fontSize=27;" parent="1" source="15" target="10" edge="1">
          <mxGeometry relative="1" as="geometry" />
        </mxCell>
        <mxCell id="DdZt1cwlgyV9_247WWNm-155" value="&lt;font&gt;Current Staff&amp;nbsp;&lt;/font&gt;&lt;div&gt;&lt;font&gt;Record&lt;/font&gt;&lt;/div&gt;" style="edgeLabel;html=1;align=center;verticalAlign=middle;resizable=0;points=[];fontSize=27;" parent="DdZt1cwlgyV9_247WWNm-154" vertex="1" connectable="0">
          <mxGeometry x="-0.1091" y="1" relative="1" as="geometry">
            <mxPoint as="offset" />
          </mxGeometry>
        </mxCell>
        <mxCell id="15" value="D3 Academic Staff" style="shape=mxgraph.dfd.dataStoreID;whiteSpace=wrap;html=1;fontSize=27;strokeWidth=2;dashed=0;align=left;spacingLeft=3;points=[[0,0],[0.5,0],[1,0],[0,0.5],[1,0.5],[0,1],[0.5,1],[1,1]];labelPadding=-90;direction=east;noLabel=0;overflow=visible;fillOpacity=100;portConstraint=east;metaEdit=0;" parent="1" vertex="1">
          <mxGeometry x="1538.5149935906566" y="419.8209098688749" width="277.1560319042871" height="82.27555555555554" as="geometry" />
        </mxCell>
        <mxCell id="DdZt1cwlgyV9_247WWNm-175" style="edgeStyle=orthogonalEdgeStyle;rounded=0;orthogonalLoop=1;jettySize=auto;html=1;strokeWidth=3;fontSize=27;" parent="1" source="16" edge="1">
          <mxGeometry relative="1" as="geometry">
            <mxPoint x="501" y="957" as="targetPoint" />
            <Array as="points">
              <mxPoint x="836.3818544366898" y="1151.4926984126982" />
              <mxPoint x="500.09920239282144" y="1151.4926984126982" />
            </Array>
          </mxGeometry>
        </mxCell>
        <mxCell id="DdZt1cwlgyV9_247WWNm-176" value="&lt;font&gt;Course List&lt;/font&gt;" style="edgeLabel;html=1;align=center;verticalAlign=middle;resizable=0;points=[];fontSize=27;" parent="DdZt1cwlgyV9_247WWNm-175" vertex="1" connectable="0">
          <mxGeometry x="-0.06" y="4" relative="1" as="geometry">
            <mxPoint x="-4" y="-6" as="offset" />
          </mxGeometry>
        </mxCell>
        <mxCell id="JcgZLlPzzMyNagXR-Yxn-27" style="edgeStyle=orthogonalEdgeStyle;rounded=0;orthogonalLoop=1;jettySize=auto;html=1;exitX=1;exitY=1;exitDx=0;exitDy=0;entryX=0.5;entryY=1;entryDx=0;entryDy=0;strokeWidth=3;" parent="1" source="16" target="JcgZLlPzzMyNagXR-Yxn-17" edge="1">
          <mxGeometry relative="1" as="geometry">
            <Array as="points">
              <mxPoint x="908" y="1253" />
              <mxPoint x="2093" y="1253" />
            </Array>
          </mxGeometry>
        </mxCell>
        <mxCell id="JcgZLlPzzMyNagXR-Yxn-29" value="&lt;font style=&quot;font-size: 24px;&quot;&gt;Existing Course Info&lt;/font&gt;" style="edgeLabel;html=1;align=center;verticalAlign=middle;resizable=0;points=[];" parent="JcgZLlPzzMyNagXR-Yxn-27" vertex="1" connectable="0">
          <mxGeometry x="0.5442" y="3" relative="1" as="geometry">
            <mxPoint as="offset" />
          </mxGeometry>
        </mxCell>
        <mxCell id="16" value="D4 Courses" style="shape=mxgraph.dfd.dataStoreID;whiteSpace=wrap;html=1;fontSize=27;strokeWidth=2;dashed=0;align=left;spacingLeft=3;points=[[0,0],[0.5,0],[1,0],[0,0.5],[1,0.5],[0,1],[0.5,1],[1,1]];labelPadding=-90;direction=east;noLabel=0;overflow=visible;fillOpacity=100;portConstraint=east;metaEdit=0;" parent="1" vertex="1">
          <mxGeometry x="630.6750135308362" y="1001.6304568668047" width="277.1560319042871" height="82.27555555555554" as="geometry" />
        </mxCell>
        <mxCell id="JcgZLlPzzMyNagXR-Yxn-25" style="edgeStyle=orthogonalEdgeStyle;rounded=0;orthogonalLoop=1;jettySize=auto;html=1;entryX=0;entryY=0.75;entryDx=0;entryDy=0;strokeWidth=3;" parent="1" source="17" target="JcgZLlPzzMyNagXR-Yxn-17" edge="1">
          <mxGeometry relative="1" as="geometry">
            <Array as="points">
              <mxPoint x="1108" y="1141" />
            </Array>
          </mxGeometry>
        </mxCell>
        <mxCell id="JcgZLlPzzMyNagXR-Yxn-30" value="&lt;font style=&quot;font-size: 24px;&quot;&gt;Existing Book Info&lt;/font&gt;" style="edgeLabel;html=1;align=center;verticalAlign=middle;resizable=0;points=[];" parent="JcgZLlPzzMyNagXR-Yxn-25" vertex="1" connectable="0">
          <mxGeometry x="0.5039" y="3" relative="1" as="geometry">
            <mxPoint as="offset" />
          </mxGeometry>
        </mxCell>
        <mxCell id="17" value="D5 Books" style="shape=mxgraph.dfd.dataStoreID;whiteSpace=wrap;html=1;fontSize=27;strokeWidth=2;dashed=0;align=left;spacingLeft=3;points=[[0,0],[0.5,0],[1,0],[0,0.5],[1,0.5],[0,1],[0.5,1],[1,1]];labelPadding=-90;direction=east;noLabel=0;overflow=visible;fillOpacity=100;portConstraint=east;metaEdit=0;" parent="1" vertex="1">
          <mxGeometry x="955.0025309784935" y="1003.999527674257" width="277.1560319042871" height="82.27555555555554" as="geometry" />
        </mxCell>
        <mxCell id="myy8Ru6dyto0Jvm3p5WP-34" value="D9 Notifications" style="shape=mxgraph.dfd.dataStoreID;whiteSpace=wrap;html=1;fontSize=27;strokeWidth=2;dashed=0;align=left;spacingLeft=3;points=[[0,0],[0.5,0],[1,0],[0,0.5],[1,0.5],[0,1],[0.5,1],[1,1]];labelPadding=-90;direction=east;noLabel=0;overflow=visible;fillOpacity=100;portConstraint=east;metaEdit=0;" parent="1" vertex="1">
          <mxGeometry x="645.4566685657315" y="55.464761904761644" width="277.1560319042871" height="82.27555555555554" as="geometry" />
        </mxCell>
        <mxCell id="DdZt1cwlgyV9_247WWNm-74" style="edgeStyle=orthogonalEdgeStyle;rounded=0;orthogonalLoop=1;jettySize=auto;html=1;strokeWidth=3;fontSize=27;" parent="1" source="myy8Ru6dyto0Jvm3p5WP-35" edge="1">
          <mxGeometry relative="1" as="geometry">
            <mxPoint x="1666.6181455633102" y="-526.3409523809524" as="targetPoint" />
            <Array as="points">
              <mxPoint x="1334.0309072781652" y="-150.22412698412722" />
              <mxPoint x="1666.6181455633102" y="-150.22412698412722" />
              <mxPoint x="1666.6181455633102" y="-518.9949206349207" />
            </Array>
          </mxGeometry>
        </mxCell>
        <mxCell id="DdZt1cwlgyV9_247WWNm-121" value="&lt;font&gt;Offer History&lt;/font&gt;" style="edgeLabel;html=1;align=center;verticalAlign=middle;resizable=0;points=[];fontSize=27;" parent="DdZt1cwlgyV9_247WWNm-74" vertex="1" connectable="0">
          <mxGeometry x="0.5145" y="4" relative="1" as="geometry">
            <mxPoint as="offset" />
          </mxGeometry>
        </mxCell>
        <mxCell id="DdZt1cwlgyV9_247WWNm-116" style="edgeStyle=orthogonalEdgeStyle;rounded=0;orthogonalLoop=1;jettySize=auto;html=1;strokeWidth=3;fontSize=27;" parent="1" edge="1">
          <mxGeometry relative="1" as="geometry">
            <mxPoint x="1364.4141570161314" y="-264.8183895100069" as="sourcePoint" />
            <mxPoint x="910" y="-426" as="targetPoint" />
            <Array as="points">
              <mxPoint x="1364" y="-426" />
            </Array>
          </mxGeometry>
        </mxCell>
        <mxCell id="DdZt1cwlgyV9_247WWNm-117" value="&lt;font&gt;Offer List&lt;/font&gt;" style="edgeLabel;html=1;align=center;verticalAlign=middle;resizable=0;points=[];fontSize=27;" parent="DdZt1cwlgyV9_247WWNm-116" vertex="1" connectable="0">
          <mxGeometry x="0.4461" relative="1" as="geometry">
            <mxPoint x="39" as="offset" />
          </mxGeometry>
        </mxCell>
        <mxCell id="myy8Ru6dyto0Jvm3p5WP-35" value="D7 Book Offers" style="shape=mxgraph.dfd.dataStoreID;whiteSpace=wrap;html=1;fontSize=27;strokeWidth=2;dashed=0;align=left;spacingLeft=3;points=[[0,0],[0.5,0],[1,0],[0,0.5],[1,0.5],[0,1],[0.5,1],[1,1]];labelPadding=-90;direction=east;noLabel=0;overflow=visible;fillOpacity=100;portConstraint=east;metaEdit=0;" parent="1" vertex="1">
          <mxGeometry x="1194.8415140293407" y="-269.2260085576261" width="277.1560319042871" height="82.27555555555554" as="geometry" />
        </mxCell>
        <mxCell id="DdZt1cwlgyV9_247WWNm-122" style="edgeStyle=orthogonalEdgeStyle;rounded=0;orthogonalLoop=1;jettySize=auto;html=1;strokeWidth=3;fontSize=27;" parent="1" source="myy8Ru6dyto0Jvm3p5WP-36" target="12" edge="1">
          <mxGeometry relative="1" as="geometry">
            <mxPoint x="1667.1108673978065" y="-592.4622647342995" as="targetPoint" />
            <Array as="points">
              <mxPoint x="1363.5942173479561" y="-786.3904761904762" />
              <mxPoint x="1830.4481555333996" y="-786.3904761904762" />
            </Array>
          </mxGeometry>
        </mxCell>
        <mxCell id="DdZt1cwlgyV9_247WWNm-123" value="&lt;font&gt;Book Request Summary&lt;/font&gt;" style="edgeLabel;html=1;align=center;verticalAlign=middle;resizable=0;points=[];fontSize=27;" parent="DdZt1cwlgyV9_247WWNm-122" vertex="1" connectable="0">
          <mxGeometry x="-0.1479" y="1" relative="1" as="geometry">
            <mxPoint x="49" as="offset" />
          </mxGeometry>
        </mxCell>
        <mxCell id="myy8Ru6dyto0Jvm3p5WP-36" value="D8 Book Requests" style="shape=mxgraph.dfd.dataStoreID;whiteSpace=wrap;html=1;fontSize=27;strokeWidth=2;dashed=0;align=left;spacingLeft=3;points=[[0,0],[0.5,0],[1,0],[0,0.5],[1,0.5],[0,1],[0.5,1],[1,1]];labelPadding=-90;direction=east;noLabel=0;overflow=visible;fillOpacity=100;portConstraint=east;metaEdit=0;" parent="1" vertex="1">
          <mxGeometry x="1161.5827902008261" y="-633.6000425120775" width="277.1560319042871" height="82.27555555555554" as="geometry" />
        </mxCell>
        <mxCell id="DdZt1cwlgyV9_247WWNm-108" style="edgeStyle=orthogonalEdgeStyle;rounded=0;orthogonalLoop=1;jettySize=auto;html=1;entryX=0.5;entryY=1;entryDx=0;entryDy=0;strokeWidth=3;fontSize=27;" parent="1" source="myy8Ru6dyto0Jvm3p5WP-37" target="12" edge="1">
          <mxGeometry relative="1" as="geometry" />
        </mxCell>
        <mxCell id="DdZt1cwlgyV9_247WWNm-120" value="&lt;font&gt;Exchange Records&amp;nbsp;&lt;/font&gt;" style="edgeLabel;html=1;align=center;verticalAlign=middle;resizable=0;points=[];fontSize=27;" parent="DdZt1cwlgyV9_247WWNm-108" vertex="1" connectable="0">
          <mxGeometry x="-0.6298" y="-1" relative="1" as="geometry">
            <mxPoint x="21" y="-1" as="offset" />
          </mxGeometry>
        </mxCell>
        <mxCell id="DdZt1cwlgyV9_247WWNm-114" style="edgeStyle=orthogonalEdgeStyle;rounded=0;orthogonalLoop=1;jettySize=auto;html=1;strokeWidth=3;fontSize=27;" parent="1" source="myy8Ru6dyto0Jvm3p5WP-37" edge="1">
          <mxGeometry relative="1" as="geometry">
            <mxPoint x="878.2632103688933" y="-319.1828571428573" as="targetPoint" />
            <Array as="points">
              <mxPoint x="1324.1764705882354" y="-84.10984126984135" />
              <mxPoint x="878.2632103688933" y="-84.10984126984135" />
              <mxPoint x="878.2632103688933" y="-316.24444444444464" />
            </Array>
          </mxGeometry>
        </mxCell>
        <mxCell id="DdZt1cwlgyV9_247WWNm-115" value="&lt;font&gt;Book Exchange Record&lt;/font&gt;" style="edgeLabel;html=1;align=center;verticalAlign=middle;resizable=0;points=[];fontSize=27;" parent="DdZt1cwlgyV9_247WWNm-114" vertex="1" connectable="0">
          <mxGeometry x="0.294" y="-2" relative="1" as="geometry">
            <mxPoint x="115" y="1" as="offset" />
          </mxGeometry>
        </mxCell>
        <mxCell id="myy8Ru6dyto0Jvm3p5WP-37" value="D6 Book Exchange" style="shape=mxgraph.dfd.dataStoreID;whiteSpace=wrap;html=1;fontSize=27;strokeWidth=2;dashed=0;align=left;spacingLeft=3;points=[[0,0],[0.5,0],[1,0],[0,0.5],[1,0.5],[0,1],[0.5,1],[1,1]];labelPadding=-90;direction=east;noLabel=0;overflow=visible;fillOpacity=100;portConstraint=east;metaEdit=0;" parent="1" vertex="1">
          <mxGeometry x="1192.377904856858" y="52.52315527950282" width="277.1560319042871" height="82.27555555555554" as="geometry" />
        </mxCell>
        <mxCell id="myy8Ru6dyto0Jvm3p5WP-38" value="&lt;font&gt;D10&lt;/font&gt; Chat Messages" style="shape=mxgraph.dfd.dataStoreID;whiteSpace=wrap;html=1;fontSize=27;strokeWidth=2;dashed=0;align=left;spacingLeft=3;points=[[0,0],[0.5,0],[1,0],[0,0.5],[1,0.5],[0,1],[0.5,1],[1,1]];labelPadding=-90;direction=east;noLabel=0;overflow=visible;fillOpacity=100;portConstraint=east;metaEdit=0;" parent="1" vertex="1">
          <mxGeometry x="285.7697293832789" y="55.46540069013054" width="277.1560319042871" height="82.27555555555554" as="geometry" />
        </mxCell>
        <mxCell id="DdZt1cwlgyV9_247WWNm-17" style="edgeStyle=orthogonalEdgeStyle;rounded=0;orthogonalLoop=1;jettySize=auto;html=1;entryX=0;entryY=0.5;entryDx=0;entryDy=0;strokeWidth=3;fontSize=27;" parent="1" source="2" target="4" edge="1">
          <mxGeometry relative="1" as="geometry" />
        </mxCell>
        <mxCell id="DdZt1cwlgyV9_247WWNm-18" value="&lt;font&gt;Login Credintials&lt;/font&gt;" style="edgeLabel;html=1;align=center;verticalAlign=middle;resizable=0;points=[];fontSize=27;" parent="DdZt1cwlgyV9_247WWNm-17" vertex="1" connectable="0">
          <mxGeometry x="-0.0908" y="2" relative="1" as="geometry">
            <mxPoint x="-1" as="offset" />
          </mxGeometry>
        </mxCell>
        <mxCell id="DdZt1cwlgyV9_247WWNm-57" style="edgeStyle=orthogonalEdgeStyle;rounded=0;orthogonalLoop=1;jettySize=auto;html=1;strokeWidth=3;fontSize=27;" parent="1" source="2" edge="1">
          <mxGeometry relative="1" as="geometry">
            <mxPoint x="557.9940179461614" y="-377.9511111111111" as="targetPoint" />
            <Array as="points">
              <mxPoint x="238.95663010967095" y="-377.9511111111111" />
            </Array>
          </mxGeometry>
        </mxCell>
        <mxCell id="DdZt1cwlgyV9_247WWNm-58" value="&lt;font&gt;Book Giving/Taking&lt;/font&gt;&lt;div&gt;&lt;font&gt;&amp;nbsp;Submission&lt;/font&gt;&lt;/div&gt;" style="edgeLabel;html=1;align=center;verticalAlign=middle;resizable=0;points=[];fontSize=27;" parent="DdZt1cwlgyV9_247WWNm-57" vertex="1" connectable="0">
          <mxGeometry x="0.3071" y="-2" relative="1" as="geometry">
            <mxPoint x="87" y="-1" as="offset" />
          </mxGeometry>
        </mxCell>
        <mxCell id="DdZt1cwlgyV9_247WWNm-90" style="edgeStyle=orthogonalEdgeStyle;rounded=0;orthogonalLoop=1;jettySize=auto;html=1;entryX=0;entryY=0.5;entryDx=0;entryDy=0;strokeWidth=3;fontSize=27;" parent="1" source="2" target="5" edge="1">
          <mxGeometry relative="1" as="geometry">
            <Array as="points">
              <mxPoint x="190.91625124626123" y="347.83682539682513" />
            </Array>
          </mxGeometry>
        </mxCell>
        <mxCell id="DdZt1cwlgyV9_247WWNm-91" value="&lt;font&gt;Registration Information&lt;/font&gt;" style="edgeLabel;html=1;align=center;verticalAlign=middle;resizable=0;points=[];fontSize=27;" parent="DdZt1cwlgyV9_247WWNm-90" vertex="1" connectable="0">
          <mxGeometry x="0.4184" y="-3" relative="1" as="geometry">
            <mxPoint x="127" y="43" as="offset" />
          </mxGeometry>
        </mxCell>
        <mxCell id="DdZt1cwlgyV9_247WWNm-145" style="edgeStyle=orthogonalEdgeStyle;rounded=0;orthogonalLoop=1;jettySize=auto;html=1;entryX=0;entryY=0.5;entryDx=0;entryDy=0;strokeWidth=3;fontSize=27;" parent="1" source="2" target="8" edge="1">
          <mxGeometry relative="1" as="geometry">
            <Array as="points">
              <mxPoint x="147.80309072781654" y="597.6019047619045" />
            </Array>
          </mxGeometry>
        </mxCell>
        <mxCell id="DdZt1cwlgyV9_247WWNm-146" value="&lt;font&gt;Staff Name&lt;/font&gt;" style="edgeLabel;html=1;align=center;verticalAlign=middle;resizable=0;points=[];fontSize=27;" parent="DdZt1cwlgyV9_247WWNm-145" vertex="1" connectable="0">
          <mxGeometry x="0.4903" y="-1" relative="1" as="geometry">
            <mxPoint as="offset" />
          </mxGeometry>
        </mxCell>
        <mxCell id="DdZt1cwlgyV9_247WWNm-167" style="edgeStyle=orthogonalEdgeStyle;rounded=0;orthogonalLoop=1;jettySize=auto;html=1;entryX=0;entryY=0.5;entryDx=0;entryDy=0;strokeWidth=3;fontSize=27;" parent="1" source="2" target="7" edge="1">
          <mxGeometry relative="1" as="geometry">
            <Array as="points">
              <mxPoint x="99.76271186440678" y="853.2438095238092" />
            </Array>
          </mxGeometry>
        </mxCell>
        <mxCell id="DdZt1cwlgyV9_247WWNm-169" value="&lt;font&gt;Department&amp;nbsp;&lt;/font&gt;&lt;div&gt;&lt;font&gt;Selection&lt;/font&gt;&lt;/div&gt;" style="edgeLabel;html=1;align=center;verticalAlign=middle;resizable=0;points=[];fontSize=27;" parent="DdZt1cwlgyV9_247WWNm-167" vertex="1" connectable="0">
          <mxGeometry x="0.874" y="-2" relative="1" as="geometry">
            <mxPoint as="offset" />
          </mxGeometry>
        </mxCell>
        <mxCell id="2" value="&lt;font&gt;Student&lt;/font&gt;" style="shape=mxgraph.dfd.externalEntity;whiteSpace=wrap;html=1;fontSize=27;dashed=0;" parent="1" vertex="1">
          <mxGeometry x="16" y="-1048.8035058661146" width="247.36647201253382" height="206.9664596273291" as="geometry" />
        </mxCell>
        <mxCell id="DdZt1cwlgyV9_247WWNm-20" style="edgeStyle=orthogonalEdgeStyle;rounded=0;orthogonalLoop=1;jettySize=auto;html=1;entryX=1;entryY=0.5;entryDx=0;entryDy=0;strokeWidth=3;fontSize=27;" parent="1" source="3" target="4" edge="1">
          <mxGeometry relative="1" as="geometry" />
        </mxCell>
        <mxCell id="DdZt1cwlgyV9_247WWNm-21" value="&lt;font&gt;Login Credintials&lt;/font&gt;" style="edgeLabel;html=1;align=center;verticalAlign=middle;resizable=0;points=[];fontSize=27;" parent="DdZt1cwlgyV9_247WWNm-20" vertex="1" connectable="0">
          <mxGeometry x="0.0497" y="-2" relative="1" as="geometry">
            <mxPoint x="-1" as="offset" />
          </mxGeometry>
        </mxCell>
        <mxCell id="DdZt1cwlgyV9_247WWNm-72" style="edgeStyle=orthogonalEdgeStyle;rounded=0;orthogonalLoop=1;jettySize=auto;html=1;entryX=1;entryY=0.5;entryDx=0;entryDy=0;strokeWidth=3;fontSize=27;" parent="1" source="3" target="12" edge="1">
          <mxGeometry relative="1" as="geometry">
            <Array as="points">
              <mxPoint x="2147.021934197407" y="-623.3085714285716" />
            </Array>
          </mxGeometry>
        </mxCell>
        <mxCell id="DdZt1cwlgyV9_247WWNm-78" value="&lt;font&gt;System Monitoring&amp;nbsp;&lt;/font&gt;&lt;div&gt;&lt;font&gt;Requesting&lt;/font&gt;&lt;/div&gt;" style="edgeLabel;html=1;align=center;verticalAlign=middle;resizable=0;points=[];fontSize=27;" parent="DdZt1cwlgyV9_247WWNm-72" vertex="1" connectable="0">
          <mxGeometry x="0.6071" y="1" relative="1" as="geometry">
            <mxPoint x="-4" y="-165" as="offset" />
          </mxGeometry>
        </mxCell>
        <mxCell id="DdZt1cwlgyV9_247WWNm-136" style="edgeStyle=orthogonalEdgeStyle;rounded=0;orthogonalLoop=1;jettySize=auto;html=1;strokeWidth=3;fontSize=27;" parent="1" source="3" target="11" edge="1">
          <mxGeometry relative="1" as="geometry">
            <Array as="points">
              <mxPoint x="2248.0299102691924" y="-388.23555555555583" />
              <mxPoint x="1948.7013958125622" y="-388.23555555555583" />
            </Array>
          </mxGeometry>
        </mxCell>
        <mxCell id="DdZt1cwlgyV9_247WWNm-137" value="&lt;font&gt;User Management&lt;/font&gt;&lt;div&gt;&lt;font&gt;&amp;nbsp;Request&lt;/font&gt;&lt;/div&gt;" style="edgeLabel;html=1;align=center;verticalAlign=middle;resizable=0;points=[];fontSize=27;" parent="DdZt1cwlgyV9_247WWNm-136" vertex="1" connectable="0">
          <mxGeometry x="0.5429" y="-3" relative="1" as="geometry">
            <mxPoint x="72" y="3" as="offset" />
          </mxGeometry>
        </mxCell>
        <mxCell id="DdZt1cwlgyV9_247WWNm-152" style="edgeStyle=orthogonalEdgeStyle;rounded=0;orthogonalLoop=1;jettySize=auto;html=1;entryX=0.09;entryY=0.018;entryDx=0;entryDy=0;strokeWidth=3;entryPerimeter=0;fontSize=27;" parent="1" source="3" target="10" edge="1">
          <mxGeometry relative="1" as="geometry">
            <Array as="points">
              <mxPoint x="2361.3559322033893" y="418.3587301587297" />
              <mxPoint x="2046.0139581256228" y="418.3587301587297" />
            </Array>
          </mxGeometry>
        </mxCell>
        <mxCell id="DdZt1cwlgyV9_247WWNm-153" value="&lt;font&gt;Staff Management Request&lt;/font&gt;" style="edgeLabel;html=1;align=center;verticalAlign=middle;resizable=0;points=[];fontSize=27;" parent="DdZt1cwlgyV9_247WWNm-152" vertex="1" connectable="0">
          <mxGeometry x="0.8742" y="-1" relative="1" as="geometry">
            <mxPoint x="105" y="1" as="offset" />
          </mxGeometry>
        </mxCell>
        <mxCell id="JcgZLlPzzMyNagXR-Yxn-20" style="edgeStyle=orthogonalEdgeStyle;rounded=0;orthogonalLoop=1;jettySize=auto;html=1;exitX=1.001;exitY=0.414;exitDx=0;exitDy=0;exitPerimeter=0;entryX=1;entryY=0.5;entryDx=0;entryDy=0;strokeWidth=3;" parent="1" source="3" target="JcgZLlPzzMyNagXR-Yxn-17" edge="1">
          <mxGeometry relative="1" as="geometry">
            <Array as="points">
              <mxPoint x="2550" y="-963" />
              <mxPoint x="2550" y="1090" />
            </Array>
          </mxGeometry>
        </mxCell>
        <mxCell id="JcgZLlPzzMyNagXR-Yxn-21" value="&lt;font style=&quot;font-size: 21px;&quot;&gt;Resource&amp;nbsp;&lt;/font&gt;&lt;div&gt;&lt;font style=&quot;font-size: 21px;&quot;&gt;Management&lt;/font&gt;&lt;/div&gt;&lt;div&gt;&lt;font style=&quot;font-size: 21px;&quot;&gt;Request&lt;/font&gt;&lt;/div&gt;" style="edgeLabel;html=1;align=center;verticalAlign=middle;resizable=0;points=[];" parent="JcgZLlPzzMyNagXR-Yxn-20" vertex="1" connectable="0">
          <mxGeometry x="0.8908" y="4" relative="1" as="geometry">
            <mxPoint x="-18" y="-4" as="offset" />
          </mxGeometry>
        </mxCell>
        <mxCell id="3" value="&lt;font&gt;Admin&lt;/font&gt;" style="shape=mxgraph.dfd.externalEntity;whiteSpace=wrap;html=1;fontSize=27;dashed=0;" parent="1" vertex="1">
          <mxGeometry x="2121.1540378863406" y="-1048.8086161490683" width="247.36647201253382" height="206.9664596273291" as="geometry" />
        </mxCell>
        <mxCell id="4" value="1.0" style="shape=swimlane;rounded=1;whiteSpace=wrap;html=1;fontStyle=1;startSize=23;fontSize=27;strokeWidth=3;" parent="1" vertex="1">
          <mxGeometry x="559.2283364193136" y="-1048.8054222222222" width="329.82196268337844" height="206.9664596273291" as="geometry" />
        </mxCell>
        <mxCell id="DdZt1cwlgyV9_247WWNm-23" value="&lt;font&gt;Validate User Log in&lt;/font&gt;" style="text;html=1;align=center;verticalAlign=middle;resizable=0;points=[];autosize=1;strokeColor=none;fillColor=none;fontSize=27;" parent="4" vertex="1">
          <mxGeometry x="24.02215211508323" y="92.2023242474001" width="259" height="44" as="geometry" />
        </mxCell>
        <mxCell id="5" value="5.0" style="shape=swimlane;rounded=1;whiteSpace=wrap;html=1;fontStyle=1;startSize=23;fontSize=27;strokeWidth=3;" parent="1" vertex="1">
          <mxGeometry x="537.2283065090442" y="244.9962136645961" width="355.08147414898156" height="206.9664596273291" as="geometry" />
        </mxCell>
        <mxCell id="DdZt1cwlgyV9_247WWNm-89" value="&lt;font&gt;Register Student Account&lt;/font&gt;" style="text;html=1;align=center;verticalAlign=middle;resizable=0;points=[];autosize=1;strokeColor=none;fillColor=none;fontSize=27;" parent="5" vertex="1">
          <mxGeometry x="16.04147414898153" y="100.00347982199361" width="323" height="44" as="geometry" />
        </mxCell>
        <mxCell id="7" value="8.0" style="shape=swimlane;rounded=1;whiteSpace=wrap;html=1;fontStyle=1;startSize=23;fontSize=27;strokeWidth=3;" parent="1" vertex="1">
          <mxGeometry x="280.84049992878545" y="750.3961711525187" width="388.3065489246545" height="206.9664596273291" as="geometry" />
        </mxCell>
        <mxCell id="DdZt1cwlgyV9_247WWNm-48" value="&lt;span style=&quot;text-wrap-mode: wrap;&quot;&gt;&lt;font&gt;&amp;nbsp;View Department Resources&lt;/font&gt;&lt;/span&gt;" style="text;html=1;align=center;verticalAlign=middle;resizable=0;points=[];autosize=1;strokeColor=none;fillColor=none;fontSize=27;" parent="7" vertex="1">
          <mxGeometry x="-0.0034510753454810583" y="89.60309266795161" width="369" height="44" as="geometry" />
        </mxCell>
        <mxCell id="DdZt1cwlgyV9_247WWNm-147" style="edgeStyle=orthogonalEdgeStyle;rounded=0;orthogonalLoop=1;jettySize=auto;html=1;strokeWidth=3;exitX=0;exitY=0.5;exitDx=0;exitDy=0;fontSize=27;" parent="1" source="15" target="8" edge="1">
          <mxGeometry relative="1" as="geometry" />
        </mxCell>
        <mxCell id="DdZt1cwlgyV9_247WWNm-148" value="&lt;font&gt;Staff Records&lt;/font&gt;" style="edgeLabel;html=1;align=center;verticalAlign=middle;resizable=0;points=[];fontSize=27;" parent="DdZt1cwlgyV9_247WWNm-147" vertex="1" connectable="0">
          <mxGeometry x="-0.0248" y="-4" relative="1" as="geometry">
            <mxPoint x="1" as="offset" />
          </mxGeometry>
        </mxCell>
        <mxCell id="8" value="6.0" style="shape=swimlane;rounded=1;whiteSpace=wrap;html=1;fontStyle=1;startSize=23;fontSize=27;container=0;strokeWidth=3;" parent="1" vertex="1">
          <mxGeometry x="969.42" y="494.76" width="329.58" height="204.24" as="geometry" />
        </mxCell>
        <mxCell id="DdZt1cwlgyV9_247WWNm-53" value="&lt;font&gt;View Academic Staff&amp;nbsp;&lt;/font&gt;&lt;div&gt;&lt;span&gt;Profiles&lt;/span&gt;&lt;/div&gt;" style="text;html=1;align=center;verticalAlign=middle;resizable=0;points=[];autosize=1;strokeColor=none;fillColor=none;fontSize=27;" parent="8" vertex="1">
          <mxGeometry x="29.285531975501982" y="73.23756449870311" width="271" height="77" as="geometry" />
        </mxCell>
        <mxCell id="DdZt1cwlgyV9_247WWNm-95" style="edgeStyle=orthogonalEdgeStyle;rounded=0;orthogonalLoop=1;jettySize=auto;html=1;strokeWidth=3;fontSize=27;" parent="1" source="9" edge="1">
          <mxGeometry relative="1" as="geometry">
            <mxPoint x="407.71385842472574" y="52.52634920634887" as="targetPoint" />
            <Array as="points">
              <mxPoint x="409" y="-331" />
              <mxPoint x="409" y="53" />
            </Array>
          </mxGeometry>
        </mxCell>
        <mxCell id="DdZt1cwlgyV9_247WWNm-96" value="Notification Received" style="edgeLabel;html=1;align=center;verticalAlign=middle;resizable=0;points=[];fontSize=27;" parent="DdZt1cwlgyV9_247WWNm-95" vertex="1" connectable="0">
          <mxGeometry x="0.1884" y="1" relative="1" as="geometry">
            <mxPoint y="-1" as="offset" />
          </mxGeometry>
        </mxCell>
        <mxCell id="9" value="3.0" style="shape=swimlane;rounded=1;whiteSpace=wrap;html=1;fontStyle=1;startSize=23;fontSize=27;strokeWidth=3;" parent="1" vertex="1">
          <mxGeometry x="559.2293419740778" y="-524.8717460317462" width="350.00768693918235" height="206.9664596273291" as="geometry" />
        </mxCell>
        <mxCell id="DdZt1cwlgyV9_247WWNm-56" value="&lt;font&gt;Manage Book Exchange&lt;/font&gt;" style="text;html=1;align=center;verticalAlign=middle;resizable=0;points=[];autosize=1;strokeColor=none;fillColor=none;fontSize=27;" parent="9" vertex="1">
          <mxGeometry x="19.007686939182328" y="88.87048713738368" width="312" height="44" as="geometry" />
        </mxCell>
        <mxCell id="DdZt1cwlgyV9_247WWNm-156" style="edgeStyle=orthogonalEdgeStyle;rounded=0;orthogonalLoop=1;jettySize=auto;html=1;exitX=0;exitY=0.75;exitDx=0;exitDy=0;entryX=0.5;entryY=1;entryDx=0;entryDy=0;strokeWidth=3;fontSize=27;" parent="1" source="10" target="15" edge="1">
          <mxGeometry relative="1" as="geometry" />
        </mxCell>
        <mxCell id="DdZt1cwlgyV9_247WWNm-157" value="&lt;font&gt;Updated Staff Profiles&lt;/font&gt;" style="edgeLabel;html=1;align=center;verticalAlign=middle;resizable=0;points=[];fontSize=27;" parent="DdZt1cwlgyV9_247WWNm-156" vertex="1" connectable="0">
          <mxGeometry x="-0.2681" y="3" relative="1" as="geometry">
            <mxPoint x="-4" y="-3" as="offset" />
          </mxGeometry>
        </mxCell>
        <mxCell id="10" value="7.0" style="shape=swimlane;rounded=1;whiteSpace=wrap;html=1;fontStyle=1;startSize=23;fontSize=27;strokeWidth=3;" parent="1" vertex="1">
          <mxGeometry x="2016.4541674975073" y="494.761293029675" width="329.82196268337844" height="206.9664596273291" as="geometry" />
        </mxCell>
        <mxCell id="DdZt1cwlgyV9_247WWNm-151" value="&lt;font&gt;Manage Academic&lt;/font&gt;&lt;div&gt;&lt;font&gt;&amp;nbsp;Resources&lt;/font&gt;&lt;/div&gt;" style="text;html=1;align=center;verticalAlign=middle;resizable=0;points=[];autosize=1;strokeColor=none;fillColor=none;fontSize=27;" parent="10" vertex="1">
          <mxGeometry x="44.91182452642049" y="68.45124665286424" width="240" height="77" as="geometry" />
        </mxCell>
        <mxCell id="DdZt1cwlgyV9_247WWNm-138" style="edgeStyle=orthogonalEdgeStyle;rounded=0;orthogonalLoop=1;jettySize=auto;html=1;strokeWidth=3;fontSize=27;" parent="1" source="11" target="DdZt1cwlgyV9_247WWNm-92" edge="1">
          <mxGeometry relative="1" as="geometry">
            <Array as="points">
              <mxPoint x="2004.1326021934196" y="227.3619047619045" />
            </Array>
          </mxGeometry>
        </mxCell>
        <mxCell id="DdZt1cwlgyV9_247WWNm-140" value="&lt;font&gt;User Account Changes&lt;/font&gt;" style="edgeLabel;html=1;align=center;verticalAlign=middle;resizable=0;points=[];fontSize=27;" parent="DdZt1cwlgyV9_247WWNm-138" vertex="1" connectable="0">
          <mxGeometry x="0.2916" y="-2" relative="1" as="geometry">
            <mxPoint as="offset" />
          </mxGeometry>
        </mxCell>
        <mxCell id="11" value="4.0" style="shape=swimlane;rounded=1;whiteSpace=wrap;html=1;fontStyle=1;startSize=23;fontSize=27;strokeWidth=3;swimlaneLine=1;" parent="1" vertex="1">
          <mxGeometry x="1936.3868693918243" y="-253.07559806763356" width="329.82196268337844" height="206.9664596273291" as="geometry" />
        </mxCell>
        <mxCell id="DdZt1cwlgyV9_247WWNm-135" value="&lt;font&gt;Manage Users&lt;/font&gt;" style="text;html=1;align=center;verticalAlign=middle;resizable=0;points=[];autosize=1;strokeColor=none;fillColor=none;fontSize=27;" parent="11" vertex="1">
          <mxGeometry x="67.91020937188395" y="87.07592647485816" width="194" height="44" as="geometry" />
        </mxCell>
        <mxCell id="12" value="2,0" style="shape=swimlane;rounded=1;whiteSpace=wrap;html=1;fontStyle=1;startSize=23;fontSize=27;strokeWidth=3;" parent="1" vertex="1">
          <mxGeometry x="1665.3898604187439" y="-726.1562097998619" width="362.8598703888334" height="206.9664596273291" as="geometry" />
        </mxCell>
        <mxCell id="DdZt1cwlgyV9_247WWNm-71" value="&lt;font&gt;Monitor Exchange Activity&lt;/font&gt;" style="text;html=1;align=center;verticalAlign=middle;resizable=0;points=[];autosize=1;strokeColor=none;fillColor=none;fontSize=27;" parent="12" vertex="1">
          <mxGeometry x="20.60987038883337" y="102.15891915946777" width="327" height="44" as="geometry" />
        </mxCell>
        <mxCell id="DdZt1cwlgyV9_247WWNm-22" value="" style="endArrow=none;startArrow=classic;html=1;rounded=0;entryX=0.5;entryY=1;entryDx=0;entryDy=0;exitX=0;exitY=0;exitDx=0;exitDy=0;strokeWidth=3;startFill=0;fontSize=27;" parent="1" source="13" edge="1">
          <mxGeometry width="50" height="50" relative="1" as="geometry">
            <mxPoint x="563.5662996724111" y="-637.5304888888891" as="sourcePoint" />
            <mxPoint x="563.9431313203248" y="-841.8389625948934" as="targetPoint" />
          </mxGeometry>
        </mxCell>
        <mxCell id="DdZt1cwlgyV9_247WWNm-110" value="&lt;div class=&quot;group pointer-events-none relative flex justify-center *:pointer-events-auto&quot;&gt;&lt;div class=&quot;tableContainer horzScrollShadows relative&quot;&gt;&lt;table class=&quot;min-w-full&quot; data-start=&quot;241&quot; data-end=&quot;434&quot;&gt;&lt;tbody data-start=&quot;289&quot; data-end=&quot;434&quot;&gt;&lt;tr data-start=&quot;353&quot; data-end=&quot;434&quot;&gt;&lt;td class=&quot;max-w-[calc(var(--thread-content-max-width)*2/3)]&quot; data-start=&quot;387&quot; data-end=&quot;434&quot;&gt;&lt;font&gt;&lt;span data-start=&quot;389&quot; data-end=&quot;408&quot;&gt;User Login Data&lt;/span&gt; or &lt;span data-start=&quot;412&quot; data-end=&quot;432&quot;&gt;User Credentials&lt;/span&gt;&lt;/font&gt;&lt;/td&gt;&lt;/tr&gt;&lt;/tbody&gt;&lt;/table&gt;&lt;/div&gt;&lt;/div&gt;" style="edgeLabel;html=1;align=center;verticalAlign=middle;resizable=0;points=[];fontSize=27;" parent="DdZt1cwlgyV9_247WWNm-22" vertex="1" connectable="0">
          <mxGeometry x="-0.2394" y="3" relative="1" as="geometry">
            <mxPoint as="offset" />
          </mxGeometry>
        </mxCell>
        <mxCell id="DdZt1cwlgyV9_247WWNm-29" style="edgeStyle=orthogonalEdgeStyle;rounded=0;orthogonalLoop=1;jettySize=auto;html=1;entryX=1;entryY=0.5;entryDx=0;entryDy=0;strokeWidth=3;fontSize=27;" parent="1" edge="1">
          <mxGeometry relative="1" as="geometry">
            <mxPoint x="889.3494516450647" y="-900.9885714285715" as="sourcePoint" />
            <mxPoint x="2121.1540378863406" y="-900.9885714285715" as="targetPoint" />
          </mxGeometry>
        </mxCell>
        <mxCell id="DdZt1cwlgyV9_247WWNm-30" value="&lt;font&gt;Authentication Result&lt;/font&gt;" style="edgeLabel;html=1;align=center;verticalAlign=middle;resizable=0;points=[];fontSize=27;" parent="DdZt1cwlgyV9_247WWNm-29" vertex="1" connectable="0">
          <mxGeometry x="0.0497" y="-2" relative="1" as="geometry">
            <mxPoint x="-1" as="offset" />
          </mxGeometry>
        </mxCell>
        <mxCell id="DdZt1cwlgyV9_247WWNm-70" value="" style="endArrow=classic;startArrow=none;html=1;rounded=0;entryX=0.468;entryY=0.002;entryDx=0;entryDy=0;strokeWidth=3;entryPerimeter=0;startFill=0;fontSize=27;" parent="1" target="myy8Ru6dyto0Jvm3p5WP-35" edge="1">
          <mxGeometry width="50" height="50" relative="1" as="geometry">
            <mxPoint x="911" y="-389" as="sourcePoint" />
            <mxPoint x="950.9396809571284" y="-598.3320634920636" as="targetPoint" />
            <Array as="points">
              <mxPoint x="1324.1764705882354" y="-386.76634920634933" />
            </Array>
          </mxGeometry>
        </mxCell>
        <mxCell id="DdZt1cwlgyV9_247WWNm-104" value="&lt;font&gt;Offer New Book&lt;/font&gt;" style="edgeLabel;html=1;align=center;verticalAlign=middle;resizable=0;points=[];fontSize=27;" parent="DdZt1cwlgyV9_247WWNm-70" vertex="1" connectable="0">
          <mxGeometry x="-0.5918" y="-3" relative="1" as="geometry">
            <mxPoint x="86" y="-2" as="offset" />
          </mxGeometry>
        </mxCell>
        <mxCell id="DdZt1cwlgyV9_247WWNm-79" style="edgeStyle=orthogonalEdgeStyle;rounded=0;orthogonalLoop=1;jettySize=auto;html=1;exitX=1;exitY=1;exitDx=0;exitDy=0;strokeWidth=3;fontSize=27;" parent="1" source="12" target="3" edge="1">
          <mxGeometry relative="1" as="geometry">
            <Array as="points">
              <mxPoint x="1995.5099700897306" y="-518.9949206349207" />
              <mxPoint x="1995.5099700897306" y="-489.61079365079377" />
              <mxPoint x="2228.3210368893315" y="-489.61079365079377" />
            </Array>
          </mxGeometry>
        </mxCell>
        <mxCell id="DdZt1cwlgyV9_247WWNm-80" value="&lt;font style=&quot;font-size: 22px;&quot;&gt;KPI Charts &amp;amp; States&lt;/font&gt;" style="edgeLabel;html=1;align=center;verticalAlign=middle;resizable=0;points=[];fontSize=27;" parent="DdZt1cwlgyV9_247WWNm-79" vertex="1" connectable="0">
          <mxGeometry x="-0.6473" y="-2" relative="1" as="geometry">
            <mxPoint x="64" y="-7" as="offset" />
          </mxGeometry>
        </mxCell>
        <mxCell id="DdZt1cwlgyV9_247WWNm-139" style="edgeStyle=orthogonalEdgeStyle;rounded=0;orthogonalLoop=1;jettySize=auto;html=1;strokeWidth=3;exitX=0.5;exitY=1;exitDx=0;exitDy=0;fontSize=27;" parent="1" source="DdZt1cwlgyV9_247WWNm-92" edge="1">
          <mxGeometry relative="1" as="geometry">
            <mxPoint x="2071.2659521435694" y="-46.116165079365146" as="targetPoint" />
            <mxPoint x="1334.036886912079" y="274.1708190476186" as="sourcePoint" />
            <Array as="points">
              <mxPoint x="1334.0309072781652" y="321.39111111111083" />
              <mxPoint x="2070.650049850449" y="321.39111111111083" />
              <mxPoint x="2070.650049850449" y="-45.910476190476174" />
            </Array>
          </mxGeometry>
        </mxCell>
        <mxCell id="DdZt1cwlgyV9_247WWNm-141" value="&lt;font&gt;Users List&lt;/font&gt;" style="edgeLabel;html=1;align=center;verticalAlign=middle;resizable=0;points=[];fontSize=27;" parent="DdZt1cwlgyV9_247WWNm-139" vertex="1" connectable="0">
          <mxGeometry x="-0.1861" y="3" relative="1" as="geometry">
            <mxPoint as="offset" />
          </mxGeometry>
        </mxCell>
        <mxCell id="DdZt1cwlgyV9_247WWNm-92" value="D1 Users" style="shape=mxgraph.dfd.dataStoreID;whiteSpace=wrap;html=1;fontSize=27;strokeWidth=2;dashed=0;align=left;spacingLeft=3;points=[[0,0],[0.5,0],[1,0],[0,0.5],[1,0.5],[0,1],[0.5,1],[1,1]];labelPadding=-90;direction=east;noLabel=0;overflow=visible;fillOpacity=100;portConstraint=east;metaEdit=0;" parent="1" vertex="1">
          <mxGeometry x="1194.8415140293407" y="186.22412698412677" width="277.1560319042871" height="82.27555555555554" as="geometry" />
        </mxCell>
        <mxCell id="DdZt1cwlgyV9_247WWNm-93" style="edgeStyle=orthogonalEdgeStyle;rounded=0;orthogonalLoop=1;jettySize=auto;html=1;strokeWidth=3;fontSize=27;entryX=0.017;entryY=-0.009;entryDx=0;entryDy=0;entryPerimeter=0;exitX=0.551;exitY=0.001;exitDx=0;exitDy=0;exitPerimeter=0;" parent="1" source="5" target="DdZt1cwlgyV9_247WWNm-92" edge="1">
          <mxGeometry relative="1" as="geometry">
            <mxPoint x="1194.8386700612452" y="186.22620698412697" as="targetPoint" />
            <Array as="points">
              <mxPoint x="733" y="186" />
            </Array>
            <mxPoint x="733" y="243" as="sourcePoint" />
          </mxGeometry>
        </mxCell>
        <mxCell id="DdZt1cwlgyV9_247WWNm-94" value="&lt;font&gt;New User Data&lt;/font&gt;" style="edgeLabel;html=1;align=center;verticalAlign=middle;resizable=0;points=[];fontSize=27;" parent="DdZt1cwlgyV9_247WWNm-93" vertex="1" connectable="0">
          <mxGeometry x="-0.7218" y="-1" relative="1" as="geometry">
            <mxPoint x="186" y="-6" as="offset" />
          </mxGeometry>
        </mxCell>
        <mxCell id="DdZt1cwlgyV9_247WWNm-98" style="edgeStyle=orthogonalEdgeStyle;rounded=0;orthogonalLoop=1;jettySize=auto;html=1;strokeWidth=3;fontSize=27;" parent="1" source="9" edge="1">
          <mxGeometry relative="1" as="geometry">
            <mxPoint x="683" y="57" as="targetPoint" />
            <Array as="points">
              <mxPoint x="685" y="-130" />
              <mxPoint x="684" y="-130" />
              <mxPoint x="684" y="57" />
            </Array>
          </mxGeometry>
        </mxCell>
        <mxCell id="DdZt1cwlgyV9_247WWNm-99" value="&lt;font&gt;Notification Received&lt;/font&gt;" style="edgeLabel;html=1;align=center;verticalAlign=middle;resizable=0;points=[];fontSize=27;" parent="DdZt1cwlgyV9_247WWNm-98" vertex="1" connectable="0">
          <mxGeometry x="-0.0858" relative="1" as="geometry">
            <mxPoint as="offset" />
          </mxGeometry>
        </mxCell>
        <mxCell id="DdZt1cwlgyV9_247WWNm-102" value="" style="endArrow=none;startArrow=classic;html=1;rounded=0;strokeWidth=3;startFill=0;fontSize=27;" parent="1" edge="1">
          <mxGeometry width="50" height="50" relative="1" as="geometry">
            <mxPoint x="1303.2357926221337" y="51.05714285714248" as="sourcePoint" />
            <mxPoint x="857.3225324027917" y="-316.24444444444464" as="targetPoint" />
            <Array as="points">
              <mxPoint x="1302.003988035892" y="-42.97206349206385" />
              <mxPoint x="858.5543369890328" y="-41.50285714285724" />
            </Array>
          </mxGeometry>
        </mxCell>
        <mxCell id="DdZt1cwlgyV9_247WWNm-103" value="&lt;font&gt;Available Books&lt;/font&gt;" style="edgeLabel;html=1;align=center;verticalAlign=middle;resizable=0;points=[];fontSize=27;" parent="DdZt1cwlgyV9_247WWNm-102" vertex="1" connectable="0">
          <mxGeometry x="0.2418" y="2" relative="1" as="geometry">
            <mxPoint x="116" y="-1" as="offset" />
          </mxGeometry>
        </mxCell>
        <mxCell id="DdZt1cwlgyV9_247WWNm-106" value="" style="endArrow=classic;startArrow=none;html=1;rounded=0;exitX=0.994;exitY=0.026;exitDx=0;exitDy=0;exitPerimeter=0;strokeWidth=3;startFill=0;entryX=0.408;entryY=0.004;entryDx=0;entryDy=0;entryPerimeter=0;fontSize=27;" parent="1" source="9" target="myy8Ru6dyto0Jvm3p5WP-36" edge="1">
          <mxGeometry width="50" height="50" relative="1" as="geometry">
            <mxPoint x="854.858923230309" y="-532.2177777777779" as="sourcePoint" />
            <mxPoint x="1274.904287138584" y="-638.0006349206351" as="targetPoint" />
            <Array as="points">
              <mxPoint x="907" y="-703" />
              <mxPoint x="1273.6724825523431" y="-704.1149206349207" />
            </Array>
          </mxGeometry>
        </mxCell>
        <mxCell id="DdZt1cwlgyV9_247WWNm-107" value="&lt;font&gt;Book Request&lt;/font&gt;" style="edgeLabel;html=1;align=center;verticalAlign=middle;resizable=0;points=[];fontSize=27;" parent="DdZt1cwlgyV9_247WWNm-106" vertex="1" connectable="0">
          <mxGeometry x="-0.2025" y="-2" relative="1" as="geometry">
            <mxPoint x="72" y="-1" as="offset" />
          </mxGeometry>
        </mxCell>
        <mxCell id="DdZt1cwlgyV9_247WWNm-112" value="" style="endArrow=classic;html=1;rounded=0;exitX=0.733;exitY=0.018;exitDx=0;exitDy=0;exitPerimeter=0;strokeWidth=3;fontSize=27;" parent="1" edge="1">
          <mxGeometry width="50" height="50" relative="1" as="geometry">
            <mxPoint x="795.0531765418032" y="-644.9529193650798" as="sourcePoint" />
            <mxPoint x="794.5004985044865" y="-841.8383238095239" as="targetPoint" />
          </mxGeometry>
        </mxCell>
        <mxCell id="DdZt1cwlgyV9_247WWNm-113" value="&lt;font&gt;User Login Data&amp;nbsp;&lt;/font&gt;" style="edgeLabel;html=1;align=center;verticalAlign=middle;resizable=0;points=[];fontSize=27;" parent="DdZt1cwlgyV9_247WWNm-112" vertex="1" connectable="0">
          <mxGeometry x="0.0406" y="-5" relative="1" as="geometry">
            <mxPoint y="-13" as="offset" />
          </mxGeometry>
        </mxCell>
        <mxCell id="DdZt1cwlgyV9_247WWNm-118" style="edgeStyle=orthogonalEdgeStyle;rounded=0;orthogonalLoop=1;jettySize=auto;html=1;strokeWidth=3;fontSize=27;entryX=0.915;entryY=-0.001;entryDx=0;entryDy=0;entryPerimeter=0;" parent="1" source="myy8Ru6dyto0Jvm3p5WP-36" target="9" edge="1">
          <mxGeometry relative="1" as="geometry">
            <Array as="points">
              <mxPoint x="1293" y="-739" />
              <mxPoint x="879" y="-739" />
            </Array>
            <mxPoint x="880" y="-521" as="targetPoint" />
          </mxGeometry>
        </mxCell>
        <mxCell id="DdZt1cwlgyV9_247WWNm-119" value="&lt;font&gt;Book Request Status&lt;/font&gt;" style="edgeLabel;html=1;align=center;verticalAlign=middle;resizable=0;points=[];fontSize=27;" parent="DdZt1cwlgyV9_247WWNm-118" vertex="1" connectable="0">
          <mxGeometry x="0.0137" y="-2" relative="1" as="geometry">
            <mxPoint x="29" y="3" as="offset" />
          </mxGeometry>
        </mxCell>
        <mxCell id="DdZt1cwlgyV9_247WWNm-142" style="edgeStyle=orthogonalEdgeStyle;rounded=0;orthogonalLoop=1;jettySize=auto;html=1;exitX=0.25;exitY=0;exitDx=0;exitDy=0;strokeWidth=3;fontSize=27;" parent="1" source="11" edge="1">
          <mxGeometry relative="1" as="geometry">
            <mxPoint x="2267.738783649053" y="-842.2203174603176" as="targetPoint" />
            <Array as="points">
              <mxPoint x="2018.914257228315" y="-308.8984126984129" />
              <mxPoint x="2267.738783649053" y="-308.8984126984129" />
            </Array>
          </mxGeometry>
        </mxCell>
        <mxCell id="DdZt1cwlgyV9_247WWNm-143" value="&lt;font&gt;Account Statuses&lt;/font&gt;" style="edgeLabel;html=1;align=center;verticalAlign=middle;resizable=0;points=[];fontSize=27;" parent="DdZt1cwlgyV9_247WWNm-142" vertex="1" connectable="0">
          <mxGeometry x="-0.6399" y="4" relative="1" as="geometry">
            <mxPoint x="30" y="4" as="offset" />
          </mxGeometry>
        </mxCell>
        <mxCell id="DdZt1cwlgyV9_247WWNm-149" style="edgeStyle=orthogonalEdgeStyle;rounded=0;orthogonalLoop=1;jettySize=auto;html=1;strokeWidth=3;fontSize=27;" parent="1" source="8" target="2" edge="1">
          <mxGeometry relative="1" as="geometry">
            <Array as="points">
              <mxPoint x="1134" y="924" />
              <mxPoint x="2430" y="924" />
              <mxPoint x="2430" y="-1088" />
              <mxPoint x="133" y="-1088" />
            </Array>
          </mxGeometry>
        </mxCell>
        <mxCell id="DdZt1cwlgyV9_247WWNm-150" value="&lt;font&gt;Staff Details&amp;nbsp;&lt;/font&gt;" style="edgeLabel;html=1;align=center;verticalAlign=middle;resizable=0;points=[];fontSize=27;" parent="DdZt1cwlgyV9_247WWNm-149" vertex="1" connectable="0">
          <mxGeometry x="-0.9169" y="4" relative="1" as="geometry">
            <mxPoint x="178" y="-6" as="offset" />
          </mxGeometry>
        </mxCell>
        <mxCell id="DdZt1cwlgyV9_247WWNm-159" style="edgeStyle=orthogonalEdgeStyle;rounded=0;orthogonalLoop=1;jettySize=auto;html=1;exitX=0.5;exitY=1;exitDx=0;exitDy=0;strokeWidth=3;fontSize=27;" parent="1" source="10" edge="1">
          <mxGeometry relative="1" as="geometry">
            <Array as="points">
              <mxPoint x="2024" y="702" />
              <mxPoint x="2024" y="797" />
              <mxPoint x="2393" y="797" />
              <mxPoint x="2393" y="-938" />
              <mxPoint x="2370" y="-938" />
            </Array>
            <mxPoint x="2369" y="-938" as="targetPoint" />
          </mxGeometry>
        </mxCell>
        <mxCell id="DdZt1cwlgyV9_247WWNm-160" value="&lt;font&gt;Action Feedback&lt;/font&gt;" style="edgeLabel;html=1;align=center;verticalAlign=middle;resizable=0;points=[];fontSize=27;" parent="DdZt1cwlgyV9_247WWNm-159" vertex="1" connectable="0">
          <mxGeometry x="-0.6016" y="-1" relative="1" as="geometry">
            <mxPoint as="offset" />
          </mxGeometry>
        </mxCell>
        <mxCell id="DdZt1cwlgyV9_247WWNm-162" style="edgeStyle=orthogonalEdgeStyle;rounded=0;orthogonalLoop=1;jettySize=auto;html=1;strokeWidth=3;fontSize=27;" parent="1" source="17" target="7" edge="1">
          <mxGeometry relative="1" as="geometry">
            <Array as="points">
              <mxPoint x="994" y="920" />
            </Array>
          </mxGeometry>
        </mxCell>
        <mxCell id="DdZt1cwlgyV9_247WWNm-163" value="&lt;span&gt;Availabe Material&lt;/span&gt;" style="edgeLabel;html=1;align=center;verticalAlign=middle;resizable=0;points=[];fontSize=27;" parent="DdZt1cwlgyV9_247WWNm-162" vertex="1" connectable="0">
          <mxGeometry x="0.0791" y="-2" relative="1" as="geometry">
            <mxPoint x="-14" y="1" as="offset" />
          </mxGeometry>
        </mxCell>
        <mxCell id="DdZt1cwlgyV9_247WWNm-165" style="edgeStyle=orthogonalEdgeStyle;rounded=0;orthogonalLoop=1;jettySize=auto;html=1;strokeWidth=3;fontSize=27;entryX=0.36;entryY=-0.001;entryDx=0;entryDy=0;entryPerimeter=0;" parent="1" target="2" edge="1">
          <mxGeometry relative="1" as="geometry">
            <mxPoint x="281" y="948" as="sourcePoint" />
            <mxPoint x="104.68993020937187" y="-1049.3784126984128" as="targetPoint" />
            <Array as="points">
              <mxPoint x="281" y="957" />
              <mxPoint x="94" y="957" />
              <mxPoint x="94" y="1318" />
              <mxPoint x="2459" y="1318" />
              <mxPoint x="2459" y="-1114" />
              <mxPoint x="105" y="-1114" />
            </Array>
          </mxGeometry>
        </mxCell>
        <mxCell id="DdZt1cwlgyV9_247WWNm-166" value="&lt;font&gt;Department Books &amp;amp; Courses&lt;/font&gt;" style="edgeLabel;html=1;align=center;verticalAlign=middle;resizable=0;points=[];fontSize=27;" parent="DdZt1cwlgyV9_247WWNm-165" vertex="1" connectable="0">
          <mxGeometry x="-0.9142" y="3" relative="1" as="geometry">
            <mxPoint x="271" y="232" as="offset" />
          </mxGeometry>
        </mxCell>
        <mxCell id="DdZt1cwlgyV9_247WWNm-171" style="edgeStyle=orthogonalEdgeStyle;rounded=0;orthogonalLoop=1;jettySize=auto;html=1;exitX=0.177;exitY=0.004;exitDx=0;exitDy=0;strokeWidth=3;fontSize=27;exitPerimeter=0;" parent="1" source="14" edge="1">
          <mxGeometry relative="1" as="geometry">
            <mxPoint x="667" y="866" as="targetPoint" />
            <Array as="points">
              <mxPoint x="1384" y="959" />
              <mxPoint x="1066" y="959" />
              <mxPoint x="1066" y="868" />
              <mxPoint x="669" y="868" />
            </Array>
          </mxGeometry>
        </mxCell>
        <mxCell id="DdZt1cwlgyV9_247WWNm-173" value="&lt;font&gt;Department&amp;nbsp;&lt;/font&gt;&lt;span style=&quot;background-color: light-dark(#ffffff, var(--ge-dark-color, #121212)); color: light-dark(rgb(0, 0, 0), rgb(255, 255, 255));&quot;&gt;Info&lt;/span&gt;" style="edgeLabel;html=1;align=center;verticalAlign=middle;resizable=0;points=[];fontSize=27;" parent="DdZt1cwlgyV9_247WWNm-171" vertex="1" connectable="0">
          <mxGeometry x="0.0715" y="1" relative="1" as="geometry">
            <mxPoint x="-196" y="1" as="offset" />
          </mxGeometry>
        </mxCell>
        <mxCell id="DdZt1cwlgyV9_247WWNm-177" style="edgeStyle=orthogonalEdgeStyle;rounded=0;orthogonalLoop=1;jettySize=auto;html=1;strokeWidth=3;fontSize=27;entryX=0.137;entryY=-0.001;entryDx=0;entryDy=0;entryPerimeter=0;" parent="1" target="2" edge="1">
          <mxGeometry relative="1" as="geometry">
            <Array as="points">
              <mxPoint x="2519" y="-460" />
              <mxPoint x="2519" y="-1161" />
              <mxPoint x="50" y="-1161" />
              <mxPoint x="50" y="-1050" />
              <mxPoint x="50" y="-1050" />
            </Array>
            <mxPoint x="910" y="-460" as="sourcePoint" />
            <mxPoint x="50" y="-1050" as="targetPoint" />
          </mxGeometry>
        </mxCell>
        <mxCell id="DdZt1cwlgyV9_247WWNm-178" value="&lt;font&gt;Exchange Result&lt;/font&gt;" style="edgeLabel;html=1;align=center;verticalAlign=middle;resizable=0;points=[];fontSize=27;" parent="DdZt1cwlgyV9_247WWNm-177" vertex="1" connectable="0">
          <mxGeometry x="-0.2622" y="-4" relative="1" as="geometry">
            <mxPoint x="-1159" y="193" as="offset" />
          </mxGeometry>
        </mxCell>
        <mxCell id="DdZt1cwlgyV9_247WWNm-179" style="edgeStyle=orthogonalEdgeStyle;rounded=0;orthogonalLoop=1;jettySize=auto;html=1;entryX=0;entryY=0;entryDx=59.341618003133455;entryDy=0;entryPerimeter=0;strokeWidth=3;fontSize=27;" parent="1" source="5" target="2" edge="1">
          <mxGeometry relative="1" as="geometry">
            <Array as="points">
              <mxPoint x="2487" y="379" />
              <mxPoint x="2487" y="-1139" />
              <mxPoint x="75" y="-1139" />
            </Array>
          </mxGeometry>
        </mxCell>
        <mxCell id="DdZt1cwlgyV9_247WWNm-180" value="&lt;font&gt;Registeration Confirmation&lt;/font&gt;" style="edgeLabel;html=1;align=center;verticalAlign=middle;resizable=0;points=[];fontSize=27;" parent="DdZt1cwlgyV9_247WWNm-179" vertex="1" connectable="0">
          <mxGeometry x="-0.9408" y="5" relative="1" as="geometry">
            <mxPoint x="39" y="1" as="offset" />
          </mxGeometry>
        </mxCell>
        <mxCell id="67J0py3XYG6gu_MXjIAr-17" value="" style="endArrow=classic;html=1;rounded=0;exitX=1;exitY=0.25;exitDx=0;exitDy=0;strokeWidth=3;entryX=0.558;entryY=-0.002;entryDx=0;entryDy=0;entryPerimeter=0;" parent="1" source="4" target="2" edge="1">
          <mxGeometry width="50" height="50" relative="1" as="geometry">
            <mxPoint x="956" y="-986" as="sourcePoint" />
            <mxPoint x="181" y="-1068" as="targetPoint" />
            <Array as="points">
              <mxPoint x="1337" y="-997" />
              <mxPoint x="1336" y="-1068" />
              <mxPoint x="154" y="-1073" />
            </Array>
          </mxGeometry>
        </mxCell>
        <mxCell id="67J0py3XYG6gu_MXjIAr-18" value="&lt;font style=&quot;font-size: 27px;&quot;&gt;Authentication&amp;nbsp;&lt;/font&gt;&lt;span style=&quot;font-size: 27px; background-color: light-dark(#ffffff, var(--ge-dark-color, #121212)); color: light-dark(rgb(0, 0, 0), rgb(255, 255, 255));&quot;&gt;Result&lt;/span&gt;" style="edgeLabel;html=1;align=center;verticalAlign=middle;resizable=0;points=[];" parent="67J0py3XYG6gu_MXjIAr-17" vertex="1" connectable="0">
          <mxGeometry x="-0.7476" relative="1" as="geometry">
            <mxPoint x="-12" as="offset" />
          </mxGeometry>
        </mxCell>
        <mxCell id="JcgZLlPzzMyNagXR-Yxn-24" style="edgeStyle=orthogonalEdgeStyle;rounded=0;orthogonalLoop=1;jettySize=auto;html=1;exitX=0.75;exitY=1;exitDx=0;exitDy=0;strokeWidth=3;" parent="1" source="JcgZLlPzzMyNagXR-Yxn-17" target="17" edge="1">
          <mxGeometry relative="1" as="geometry">
            <Array as="points">
              <mxPoint x="2175" y="1213" />
              <mxPoint x="1293" y="1213" />
              <mxPoint x="1293" y="1045" />
            </Array>
          </mxGeometry>
        </mxCell>
        <mxCell id="JcgZLlPzzMyNagXR-Yxn-28" value="&lt;font style=&quot;font-size: 24px;&quot;&gt;Updated Book Data&lt;/font&gt;" style="edgeLabel;html=1;align=center;verticalAlign=middle;resizable=0;points=[];" parent="JcgZLlPzzMyNagXR-Yxn-24" vertex="1" connectable="0">
          <mxGeometry x="-0.0464" y="-1" relative="1" as="geometry">
            <mxPoint x="-240" y="-7" as="offset" />
          </mxGeometry>
        </mxCell>
        <mxCell id="JcgZLlPzzMyNagXR-Yxn-17" value="9.0" style="shape=swimlane;rounded=1;whiteSpace=wrap;html=1;fontStyle=1;startSize=23;fontSize=27;strokeWidth=3;" parent="1" vertex="1">
          <mxGeometry x="1928.0041674975073" y="986.0012930296753" width="329.82196268337844" height="206.9664596273291" as="geometry" />
        </mxCell>
        <mxCell id="JcgZLlPzzMyNagXR-Yxn-18" value="Manage Departments&lt;div&gt;Resources&lt;/div&gt;" style="text;html=1;align=center;verticalAlign=middle;resizable=0;points=[];autosize=1;strokeColor=none;fillColor=none;fontSize=27;" parent="JcgZLlPzzMyNagXR-Yxn-17" vertex="1">
          <mxGeometry x="25.91182452642049" y="68.45124665286424" width="278" height="77" as="geometry" />
        </mxCell>
        <mxCell id="JcgZLlPzzMyNagXR-Yxn-22" style="edgeStyle=orthogonalEdgeStyle;rounded=0;orthogonalLoop=1;jettySize=auto;html=1;entryX=0.863;entryY=0.991;entryDx=0;entryDy=0;entryPerimeter=0;strokeWidth=3;" parent="1" target="16" edge="1">
          <mxGeometry relative="1" as="geometry">
            <mxPoint x="2257" y="1186" as="sourcePoint" />
            <Array as="points">
              <mxPoint x="2258" y="1186" />
              <mxPoint x="2258" y="1301" />
              <mxPoint x="870" y="1301" />
              <mxPoint x="870" y="1084" />
              <mxPoint x="870" y="1084" />
            </Array>
          </mxGeometry>
        </mxCell>
        <mxCell id="JcgZLlPzzMyNagXR-Yxn-23" value="&lt;font style=&quot;font-size: 24px;&quot;&gt;Updated Course Data&lt;/font&gt;" style="edgeLabel;html=1;align=center;verticalAlign=middle;resizable=0;points=[];" parent="JcgZLlPzzMyNagXR-Yxn-22" vertex="1" connectable="0">
          <mxGeometry x="0.587" y="-3" relative="1" as="geometry">
            <mxPoint as="offset" />
          </mxGeometry>
        </mxCell>
        <mxCell id="JcgZLlPzzMyNagXR-Yxn-31" style="edgeStyle=orthogonalEdgeStyle;rounded=0;orthogonalLoop=1;jettySize=auto;html=1;exitX=1;exitY=0.25;exitDx=0;exitDy=0;entryX=0;entryY=0;entryDx=247.36647201253382;entryDy=59.241614906832275;entryPerimeter=0;strokeWidth=3;" parent="1" edge="1">
          <mxGeometry relative="1" as="geometry">
            <mxPoint x="2257.826130180886" y="1041.312907936508" as="sourcePoint" />
            <mxPoint x="2368.5205098988745" y="-985.9970012422361" as="targetPoint" />
            <Array as="points">
              <mxPoint x="2258" y="986.5700000000002" />
              <mxPoint x="2586" y="986.5700000000002" />
              <mxPoint x="2586" y="-986.4300000000001" />
            </Array>
          </mxGeometry>
        </mxCell>
        <mxCell id="JcgZLlPzzMyNagXR-Yxn-32" value="&lt;font style=&quot;font-size: 21px;&quot;&gt;Update&lt;/font&gt;&lt;div&gt;&lt;font style=&quot;font-size: 21px;&quot;&gt;&amp;nbsp;Confirmation&lt;/font&gt;&lt;/div&gt;" style="edgeLabel;html=1;align=center;verticalAlign=middle;resizable=0;points=[];" parent="JcgZLlPzzMyNagXR-Yxn-31" vertex="1" connectable="0">
          <mxGeometry x="-0.8815" y="-1" relative="1" as="geometry">
            <mxPoint x="6" y="3" as="offset" />
          </mxGeometry>
        </mxCell>
        <mxCell id="FjKb_RIgD_crjA29e2s8-17" value="" style="endArrow=classic;html=1;rounded=0;strokeWidth=3;" parent="1" edge="1">
          <mxGeometry width="50" height="50" relative="1" as="geometry">
            <mxPoint x="766" y="52.51999999999998" as="sourcePoint" />
            <mxPoint x="771" y="-316" as="targetPoint" />
          </mxGeometry>
        </mxCell>
        <mxCell id="FjKb_RIgD_crjA29e2s8-18" value="&lt;font style=&quot;font-size: 27px;&quot;&gt;Sent Message&lt;/font&gt;" style="edgeLabel;html=1;align=center;verticalAlign=middle;resizable=0;points=[];" parent="FjKb_RIgD_crjA29e2s8-17" vertex="1" connectable="0">
          <mxGeometry x="-0.4354" y="-1" relative="1" as="geometry">
            <mxPoint y="1" as="offset" />
          </mxGeometry>
        </mxCell>
        <mxCell id="FjKb_RIgD_crjA29e2s8-24" value="" style="endArrow=classic;html=1;rounded=0;strokeWidth=3;" parent="1" edge="1">
          <mxGeometry width="50" height="50" relative="1" as="geometry">
            <mxPoint x="518" y="48" as="sourcePoint" />
            <mxPoint x="614" y="-324" as="targetPoint" />
            <Array as="points">
              <mxPoint x="522" y="-208" />
              <mxPoint x="614" y="-208" />
            </Array>
          </mxGeometry>
        </mxCell>
        <mxCell id="FjKb_RIgD_crjA29e2s8-25" value="&lt;span style=&quot;font-size: 27px;&quot;&gt;Sent Message&lt;/span&gt;" style="edgeLabel;html=1;align=center;verticalAlign=middle;resizable=0;points=[];" parent="FjKb_RIgD_crjA29e2s8-24" vertex="1" connectable="0">
          <mxGeometry x="-0.5301" y="-6" relative="1" as="geometry">
            <mxPoint as="offset" />
          </mxGeometry>
        </mxCell>
        <mxCell id="lwjdjlaqXa1Dy5tk2Sx1-17" value="&lt;font style=&quot;color: rgb(139, 139, 139); font-size: 34px;&quot;&gt;Figure 9.2 : Zero Level Data Flow Diagram&lt;/font&gt;" style="text;html=1;align=center;verticalAlign=middle;resizable=0;points=[];autosize=1;strokeColor=none;fillColor=none;rotation=90;" vertex="1" parent="1">
          <mxGeometry x="-280" y="-38" width="660" height="53" as="geometry" />
        </mxCell>
      </root>
    </mxGraphModel>
  </diagram>
</mxfile>
